<svg width="88" height="23" viewBox="0 0 88 23" fill="none" xmlns="http://www.w3.org/2000/svg">
<path d="M10.9441 22.0801L12.0641 16.4481L12.9601 9.79208L13.8561 16.4481L14.9761 22.0801H22.0161L25.9201 6.27208H19.6481L18.9441 13.0241L18.4321 18.5921L17.5361 13.0561L16.0961 6.27208H9.76009L8.44809 13.0561L7.48809 18.5921L6.97609 13.0241L6.27209 6.27208H8.79019e-05L3.90409 22.0801H10.9441ZM34.2501 22.4001C36.8101 22.4001 38.5061 21.1841 39.1781 20.4161L37.6101 16.0961C37.0981 16.8961 36.2661 17.4081 35.5621 17.4081C34.8261 17.4081 34.4101 16.9921 34.4101 16.1601V10.6241H38.2501V6.27208H34.4101V1.92008L28.6501 4.48008V6.27208H26.4101V10.6241H28.6501V16.9921C28.6501 20.0641 30.1541 22.4001 34.2501 22.4001ZM49.5066 22.0801L50.6266 16.4481L51.5226 9.79208L52.4186 16.4481L53.5386 22.0801H60.5786L64.4826 6.27208H58.2106L57.5066 13.0241L56.9946 18.5921L56.0986 13.0561L54.6586 6.27208H48.3226L47.0106 13.0561L46.0506 18.5921L45.5386 13.0241L44.8346 6.27208H38.5626L42.4666 22.0801H49.5066ZM70.9738 22.0801V14.1121C70.9738 11.5521 72.1898 10.3041 73.5018 10.3041C74.4298 10.3041 74.8138 10.9121 74.8138 11.8081C74.8138 12.7681 74.1738 13.9841 73.5978 14.6561H78.8778C79.3258 13.8561 79.9658 12.2241 79.9658 10.3041C79.9658 7.68008 78.9418 5.95208 76.1898 5.95208C72.9578 5.95208 71.4538 8.89608 70.9738 11.6161V6.27208H65.2138V22.0801H70.9738ZM84.2248 6.30408C85.9528 6.30408 87.3608 5.02408 87.3608 3.13608C87.3608 1.28008 85.9528 7.62939e-05 84.2248 7.62939e-05C82.4968 7.62939e-05 81.0888 1.28008 81.0888 3.13608C81.0888 5.02408 82.4968 6.30408 84.2248 6.30408ZM84.2248 4.09608C83.7128 4.09608 83.3928 3.74408 83.3928 3.13608C83.3928 2.52808 83.7128 2.20808 84.2248 2.20808C84.7368 2.20808 85.0568 2.52808 85.0568 3.13608C85.0568 3.74408 84.7368 4.09608 84.2248 4.09608Z" fill="black"/>
</svg>
